<svg width="356" height="86" viewBox="0 0 356 86" fill="none" xmlns="http://www.w3.org/2000/svg">
<mask id="path-1-outside-1" maskUnits="userSpaceOnUse" x="21.7495" y="63.5228" width="44" height="22" fill="black">
<rect fill="white" x="21.7495" y="63.5228" width="44" height="22"/>
<path d="M62.9228 64.5972C63.2599 67.5166 63.5204 70.436 63.7349 73.3368C63.8575 74.8058 63.9494 76.2561 64.0413 77.7251C64.1332 79.1941 64.2252 80.6259 64.2711 82.0949V83.6569H62.8615L58.0199 83.973L53.1936 84.1589C49.9607 84.3077 46.7432 84.2705 43.5103 84.3449C40.2774 84.4192 37.0752 84.3449 33.8424 84.1775L29.0161 83.973L24.1744 83.6755L22.7495 83.5825V82.0205C22.7495 80.5515 22.918 79.1012 22.9946 77.6508C23.0712 76.2004 23.1632 74.7314 23.2858 73.2624C23.5003 70.3616 23.7607 67.4422 24.1131 64.5228C24.4655 67.4422 24.726 70.3616 24.9405 73.2624C25.0631 74.7314 25.1397 76.1818 25.2316 77.6508C25.3235 79.1198 25.1856 78.8236 25.2316 80.2926L28.9548 80.0495L33.7811 79.8635C37.0139 79.7334 40.2315 79.752 43.449 79.6962C46.6666 79.6404 49.8994 79.6962 53.1323 79.8635L57.9586 80.0495L61.6818 80.2926C61.6818 78.8236 61.6052 79.1012 61.6818 77.6508C61.7584 76.2004 61.8503 74.7314 61.9729 73.2624C62.31 70.436 62.5704 67.5166 62.9228 64.5972Z"/>
</mask>
<path d="M62.9228 64.5972C63.2599 67.5166 63.5204 70.436 63.7349 73.3368C63.8575 74.8058 63.9494 76.2561 64.0413 77.7251C64.1332 79.1941 64.2252 80.6259 64.2711 82.0949V83.6569H62.8615L58.0199 83.973L53.1936 84.1589C49.9607 84.3077 46.7432 84.2705 43.5103 84.3449C40.2774 84.4192 37.0752 84.3449 33.8424 84.1775L29.0161 83.973L24.1744 83.6755L22.7495 83.5825V82.0205C22.7495 80.5515 22.918 79.1012 22.9946 77.6508C23.0712 76.2004 23.1632 74.7314 23.2858 73.2624C23.5003 70.3616 23.7607 67.4422 24.1131 64.5228C24.4655 67.4422 24.726 70.3616 24.9405 73.2624C25.0631 74.7314 25.1397 76.1818 25.2316 77.6508C25.3235 79.1198 25.1856 78.8236 25.2316 80.2926L28.9548 80.0495L33.7811 79.8635C37.0139 79.7334 40.2315 79.752 43.449 79.6962C46.6666 79.6404 49.8994 79.6962 53.1323 79.8635L57.9586 80.0495L61.6818 80.2926C61.6818 78.8236 61.6052 79.1012 61.6818 77.6508C61.7584 76.2004 61.8503 74.7314 61.9729 73.2624C62.31 70.436 62.5704 67.5166 62.9228 64.5972Z" fill="white"/>
<path d="M62.9228 64.5972C63.2599 67.5166 63.5204 70.436 63.7349 73.3368C63.8575 74.8058 63.9494 76.2561 64.0413 77.7251C64.1332 79.1941 64.2252 80.6259 64.2711 82.0949V83.6569H62.8615L58.0199 83.973L53.1936 84.1589C49.9607 84.3077 46.7432 84.2705 43.5103 84.3449C40.2774 84.4192 37.0752 84.3449 33.8424 84.1775L29.0161 83.973L24.1744 83.6755L22.7495 83.5825V82.0205C22.7495 80.5515 22.918 79.1012 22.9946 77.6508C23.0712 76.2004 23.1632 74.7314 23.2858 73.2624C23.5003 70.3616 23.7607 67.4422 24.1131 64.5228C24.4655 67.4422 24.726 70.3616 24.9405 73.2624C25.0631 74.7314 25.1397 76.1818 25.2316 77.6508C25.3235 79.1198 25.1856 78.8236 25.2316 80.2926L28.9548 80.0495L33.7811 79.8635C37.0139 79.7334 40.2315 79.752 43.449 79.6962C46.6666 79.6404 49.8994 79.6962 53.1323 79.8635L57.9586 80.0495L61.6818 80.2926C61.6818 78.8236 61.6052 79.1012 61.6818 77.6508C61.7584 76.2004 61.8503 74.7314 61.9729 73.2624C62.31 70.436 62.5704 67.5166 62.9228 64.5972Z" stroke="white" stroke-width="2" mask="url(#path-1-outside-1)"/>
<mask id="path-2-outside-2" maskUnits="userSpaceOnUse" x="36.5306" y="-0.12413" width="16" height="16" fill="black">
<rect fill="white" x="36.5306" y="-0.12413" width="16" height="16"/>
<path d="M44.5151 1.0001C46.0482 1.00579 47.5388 1.50695 48.7662 2.42936C49.5044 2.97937 50.1247 3.67312 50.5899 4.46918C51.0552 5.26525 51.3558 6.14729 51.4739 7.06262C51.5921 7.97795 51.5252 8.9078 51.2774 9.79661C51.0296 10.6854 50.6059 11.515 50.0316 12.2357C49.3604 13.0542 48.5186 13.7148 47.5655 14.171C46.6123 14.6271 45.571 14.8678 44.5151 14.8759C43.4547 14.8776 42.4073 14.6415 41.4495 14.1847C40.4916 13.7279 39.6476 13.062 38.9789 12.2357C38.3683 11.4649 37.929 10.572 37.6902 9.61678C37.4515 8.66157 37.419 7.66617 37.5948 6.69731C37.9101 4.98501 38.8649 3.4583 40.2641 2.42936C41.4853 1.49525 42.9799 0.992748 44.5151 1.0001ZM44.5151 1.0001C43.7744 1.00922 43.0464 1.19376 42.3902 1.5387C41.7339 1.88364 41.1681 2.37924 40.7386 2.98518C40.3494 3.52552 40.0867 4.14717 39.9703 4.80371C39.8539 5.46024 39.8867 6.1347 40.0664 6.77671C40.3891 7.83021 41.095 8.72314 42.0436 9.27791C42.795 9.75313 43.6667 10.0012 44.5547 9.99254C45.4393 9.99647 46.308 9.75612 47.0657 9.29777C47.5797 8.98267 48.0233 8.5643 48.3686 8.06891C48.7139 7.57353 48.9535 7.01185 49.0723 6.41909C49.1912 5.82633 49.1867 5.2153 49.0591 4.62438C48.9316 4.03345 48.6837 3.47538 48.3312 2.98518C47.8978 2.37384 47.3257 1.8749 46.6621 1.5297C45.9985 1.1845 45.2625 1.00296 44.5151 1.0001Z"/>
</mask>
<path d="M44.5151 1.0001C46.0482 1.00579 47.5388 1.50695 48.7662 2.42936C49.5044 2.97937 50.1247 3.67312 50.5899 4.46918C51.0552 5.26525 51.3558 6.14729 51.4739 7.06262C51.5921 7.97795 51.5252 8.9078 51.2774 9.79661C51.0296 10.6854 50.6059 11.515 50.0316 12.2357C49.3604 13.0542 48.5186 13.7148 47.5655 14.171C46.6123 14.6271 45.571 14.8678 44.5151 14.8759C43.4547 14.8776 42.4073 14.6415 41.4495 14.1847C40.4916 13.7279 39.6476 13.062 38.9789 12.2357C38.3683 11.4649 37.929 10.572 37.6902 9.61678C37.4515 8.66157 37.419 7.66617 37.5948 6.69731C37.9101 4.98501 38.8649 3.4583 40.2641 2.42936C41.4853 1.49525 42.9799 0.992748 44.5151 1.0001ZM44.5151 1.0001C43.7744 1.00922 43.0464 1.19376 42.3902 1.5387C41.7339 1.88364 41.1681 2.37924 40.7386 2.98518C40.3494 3.52552 40.0867 4.14717 39.9703 4.80371C39.8539 5.46024 39.8867 6.1347 40.0664 6.77671C40.3891 7.83021 41.095 8.72314 42.0436 9.27791C42.795 9.75313 43.6667 10.0012 44.5547 9.99254C45.4393 9.99647 46.308 9.75612 47.0657 9.29777C47.5797 8.98267 48.0233 8.5643 48.3686 8.06891C48.7139 7.57353 48.9535 7.01185 49.0723 6.41909C49.1912 5.82633 49.1867 5.2153 49.0591 4.62438C48.9316 4.03345 48.6837 3.47538 48.3312 2.98518C47.8978 2.37384 47.3257 1.8749 46.6621 1.5297C45.9985 1.1845 45.2625 1.00296 44.5151 1.0001Z" fill="white"/>
<path d="M44.5151 1.0001C46.0482 1.00579 47.5388 1.50695 48.7662 2.42936C49.5044 2.97937 50.1247 3.67312 50.5899 4.46918C51.0552 5.26525 51.3558 6.14729 51.4739 7.06262C51.5921 7.97795 51.5252 8.9078 51.2774 9.79661C51.0296 10.6854 50.6059 11.515 50.0316 12.2357C49.3604 13.0542 48.5186 13.7148 47.5655 14.171C46.6123 14.6271 45.571 14.8678 44.5151 14.8759C43.4547 14.8776 42.4073 14.6415 41.4495 14.1847C40.4916 13.7279 39.6476 13.062 38.9789 12.2357C38.3683 11.4649 37.929 10.572 37.6902 9.61678C37.4515 8.66157 37.419 7.66617 37.5948 6.69731C37.9101 4.98501 38.8649 3.4583 40.2641 2.42936C41.4853 1.49525 42.9799 0.992748 44.5151 1.0001ZM44.5151 1.0001C43.7744 1.00922 43.0464 1.19376 42.3902 1.5387C41.7339 1.88364 41.1681 2.37924 40.7386 2.98518C40.3494 3.52552 40.0867 4.14717 39.9703 4.80371C39.8539 5.46024 39.8867 6.1347 40.0664 6.77671C40.3891 7.83021 41.095 8.72314 42.0436 9.27791C42.795 9.75313 43.6667 10.0012 44.5547 9.99254C45.4393 9.99647 46.308 9.75612 47.0657 9.29777C47.5797 8.98267 48.0233 8.5643 48.3686 8.06891C48.7139 7.57353 48.9535 7.01185 49.0723 6.41909C49.1912 5.82633 49.1867 5.2153 49.0591 4.62438C48.9316 4.03345 48.6837 3.47538 48.3312 2.98518C47.8978 2.37384 47.3257 1.8749 46.6621 1.5297C45.9985 1.1845 45.2625 1.00296 44.5151 1.0001Z" stroke="white" mask="url(#path-2-outside-2)"/>
<mask id="path-3-outside-3" maskUnits="userSpaceOnUse" x="40.9308" y="38.7773" width="48" height="19" fill="black">
<rect fill="white" x="40.9308" y="38.7773" width="48" height="19"/>
<path d="M87.9978 54.4584C84.124 55.4966 80.1425 56.0762 76.1345 56.1854C72.1049 56.3426 68.0699 56.0831 64.0932 55.4112C60.0269 54.7327 56.0741 53.49 52.3485 51.7189C48.52 49.8211 45.147 47.112 42.4624 43.7786C42.2609 43.5238 42.1117 43.2314 42.0235 42.9183C41.9352 42.6053 41.9096 42.2777 41.9482 41.9547C41.9869 41.6316 42.0889 41.3195 42.2484 41.0363C42.4079 40.7531 42.6218 40.5044 42.8777 40.3047C43.3955 39.9001 44.0514 39.7169 44.703 39.7949C45.3545 39.873 45.9491 40.206 46.3576 40.7216L46.496 40.9399C48.4694 44.0359 51.1032 46.6532 54.2071 48.6024C57.4751 50.59 61.0018 52.1131 64.6864 53.1284C68.4428 54.1909 72.2996 54.8562 76.1938 55.1135C80.1405 55.3639 84.1027 55.144 87.9978 54.4584Z"/>
</mask>
<path d="M87.9978 54.4584C84.124 55.4966 80.1425 56.0762 76.1345 56.1854C72.1049 56.3426 68.0699 56.0831 64.0932 55.4112C60.0269 54.7327 56.0741 53.49 52.3485 51.7189C48.52 49.8211 45.147 47.112 42.4624 43.7786C42.2609 43.5238 42.1117 43.2314 42.0235 42.9183C41.9352 42.6053 41.9096 42.2777 41.9482 41.9547C41.9869 41.6316 42.0889 41.3195 42.2484 41.0363C42.4079 40.7531 42.6218 40.5044 42.8777 40.3047C43.3955 39.9001 44.0514 39.7169 44.703 39.7949C45.3545 39.873 45.9491 40.206 46.3576 40.7216L46.496 40.9399C48.4694 44.0359 51.1032 46.6532 54.2071 48.6024C57.4751 50.59 61.0018 52.1131 64.6864 53.1284C68.4428 54.1909 72.2996 54.8562 76.1938 55.1135C80.1405 55.3639 84.1027 55.144 87.9978 54.4584Z" fill="white"/>
<path d="M87.9978 54.4584C84.124 55.4966 80.1425 56.0762 76.1345 56.1854C72.1049 56.3426 68.0699 56.0831 64.0932 55.4112C60.0269 54.7327 56.0741 53.49 52.3485 51.7189C48.52 49.8211 45.147 47.112 42.4624 43.7786C42.2609 43.5238 42.1117 43.2314 42.0235 42.9183C41.9352 42.6053 41.9096 42.2777 41.9482 41.9547C41.9869 41.6316 42.0889 41.3195 42.2484 41.0363C42.4079 40.7531 42.6218 40.5044 42.8777 40.3047C43.3955 39.9001 44.0514 39.7169 44.703 39.7949C45.3545 39.873 45.9491 40.206 46.3576 40.7216L46.496 40.9399C48.4694 44.0359 51.1032 46.6532 54.2071 48.6024C57.4751 50.59 61.0018 52.1131 64.6864 53.1284C68.4428 54.1909 72.2996 54.8562 76.1938 55.1135C80.1405 55.3639 84.1027 55.144 87.9978 54.4584Z" stroke="white" stroke-width="2" mask="url(#path-3-outside-3)"/>
<mask id="path-4-outside-4" maskUnits="userSpaceOnUse" x="0" y="38.7579" width="49" height="19" fill="black">
<rect fill="white" y="38.7579" width="49" height="19"/>
<path d="M1 54.4584C4.92177 55.0876 8.90402 55.2475 12.8633 54.9348C16.7575 54.6775 20.6143 54.0122 24.3707 52.9497C28.0553 51.9344 31.582 50.4113 34.85 48.4237C37.9439 46.4686 40.5701 43.8523 42.5414 40.7613C42.9154 40.2591 43.4637 39.9163 44.0776 39.8007C44.6915 39.6852 45.3262 39.8054 45.856 40.1376C46.3858 40.4697 46.772 40.9895 46.9381 41.594C47.1042 42.1985 47.0381 42.8436 46.7529 43.4014L46.5947 43.6C43.9159 46.9393 40.5416 49.6495 36.7086 51.5403C32.983 53.3114 29.0303 54.5541 24.9639 55.2326C20.9806 55.9051 16.939 56.1646 12.9028 56.0068C8.88871 55.9576 4.89406 55.4379 1 54.4584Z"/>
</mask>
<path d="M1 54.4584C4.92177 55.0876 8.90402 55.2475 12.8633 54.9348C16.7575 54.6775 20.6143 54.0122 24.3707 52.9497C28.0553 51.9344 31.582 50.4113 34.85 48.4237C37.9439 46.4686 40.5701 43.8523 42.5414 40.7613C42.9154 40.2591 43.4637 39.9163 44.0776 39.8007C44.6915 39.6852 45.3262 39.8054 45.856 40.1376C46.3858 40.4697 46.772 40.9895 46.9381 41.594C47.1042 42.1985 47.0381 42.8436 46.7529 43.4014L46.5947 43.6C43.9159 46.9393 40.5416 49.6495 36.7086 51.5403C32.983 53.3114 29.0303 54.5541 24.9639 55.2326C20.9806 55.9051 16.939 56.1646 12.9028 56.0068C8.88871 55.9576 4.89406 55.4379 1 54.4584Z" fill="white"/>
<path d="M1 54.4584C4.92177 55.0876 8.90402 55.2475 12.8633 54.9348C16.7575 54.6775 20.6143 54.0122 24.3707 52.9497C28.0553 51.9344 31.582 50.4113 34.85 48.4237C37.9439 46.4686 40.5701 43.8523 42.5414 40.7613C42.9154 40.2591 43.4637 39.9163 44.0776 39.8007C44.6915 39.6852 45.3262 39.8054 45.856 40.1376C46.3858 40.4697 46.772 40.9895 46.9381 41.594C47.1042 42.1985 47.0381 42.8436 46.7529 43.4014L46.5947 43.6C43.9159 46.9393 40.5416 49.6495 36.7086 51.5403C32.983 53.3114 29.0303 54.5541 24.9639 55.2326C20.9806 55.9051 16.939 56.1646 12.9028 56.0068C8.88871 55.9576 4.89406 55.4379 1 54.4584Z" stroke="white" stroke-width="2" mask="url(#path-4-outside-4)"/>
<mask id="path-5-outside-5" maskUnits="userSpaceOnUse" x="40.9399" y="18.8164" width="34" height="19" fill="black">
<rect fill="white" x="40.9399" y="18.8164" width="34" height="19"/>
<path d="M74.4932 34.5282C71.7212 35.5984 68.7829 36.1695 65.8132 36.2155C62.7741 36.3398 59.7353 35.9643 56.8169 35.1038C53.7961 34.2224 50.9662 32.7816 48.473 30.8557C45.9736 28.8303 43.8745 26.3525 42.2843 23.5506C42.118 23.2698 42.009 22.9585 41.9638 22.635C41.9185 22.3115 41.9378 21.9821 42.0207 21.6662C42.1035 21.3502 42.2481 21.054 42.4461 20.7947C42.6442 20.5355 42.8916 20.3184 43.1741 20.1561C43.7434 19.8233 44.4208 19.7305 45.0582 19.8979C45.6955 20.0653 46.2408 20.4793 46.5749 21.0494L46.7133 21.367C47.6836 23.9097 49.1534 26.2305 51.0352 28.1914C52.917 30.1523 55.1723 31.7132 57.6671 32.7813C60.257 33.9644 63.0219 34.7154 65.8528 35.0046C68.7382 35.3622 71.6641 35.2009 74.4932 34.5282Z"/>
</mask>
<path d="M74.4932 34.5282C71.7212 35.5984 68.7829 36.1695 65.8132 36.2155C62.7741 36.3398 59.7353 35.9643 56.8169 35.1038C53.7961 34.2224 50.9662 32.7816 48.473 30.8557C45.9736 28.8303 43.8745 26.3525 42.2843 23.5506C42.118 23.2698 42.009 22.9585 41.9638 22.635C41.9185 22.3115 41.9378 21.9821 42.0207 21.6662C42.1035 21.3502 42.2481 21.054 42.4461 20.7947C42.6442 20.5355 42.8916 20.3184 43.1741 20.1561C43.7434 19.8233 44.4208 19.7305 45.0582 19.8979C45.6955 20.0653 46.2408 20.4793 46.5749 21.0494L46.7133 21.367C47.6836 23.9097 49.1534 26.2305 51.0352 28.1914C52.917 30.1523 55.1723 31.7132 57.6671 32.7813C60.257 33.9644 63.0219 34.7154 65.8528 35.0046C68.7382 35.3622 71.6641 35.2009 74.4932 34.5282Z" fill="white"/>
<path d="M74.4932 34.5282C71.7212 35.5984 68.7829 36.1695 65.8132 36.2155C62.7741 36.3398 59.7353 35.9643 56.8169 35.1038C53.7961 34.2224 50.9662 32.7816 48.473 30.8557C45.9736 28.8303 43.8745 26.3525 42.2843 23.5506C42.118 23.2698 42.009 22.9585 41.9638 22.635C41.9185 22.3115 41.9378 21.9821 42.0207 21.6662C42.1035 21.3502 42.2481 21.054 42.4461 20.7947C42.6442 20.5355 42.8916 20.3184 43.1741 20.1561C43.7434 19.8233 44.4208 19.7305 45.0582 19.8979C45.6955 20.0653 46.2408 20.4793 46.5749 21.0494L46.7133 21.367C47.6836 23.9097 49.1534 26.2305 51.0352 28.1914C52.917 30.1523 55.1723 31.7132 57.6671 32.7813C60.257 33.9644 63.0219 34.7154 65.8528 35.0046C68.7382 35.3622 71.6641 35.2009 74.4932 34.5282Z" stroke="white" stroke-width="2" stroke-linejoin="round" mask="url(#path-5-outside-5)"/>
<mask id="path-6-outside-6" maskUnits="userSpaceOnUse" x="13.5244" y="18.9581" width="35" height="19" fill="black">
<rect fill="white" x="13.5244" y="18.9581" width="35" height="19"/>
<path d="M14.5244 34.5281C17.3547 35.1942 20.2805 35.3488 23.1649 34.9847C25.9952 34.6931 28.7597 33.9422 31.3505 32.7614C33.8578 31.6447 36.132 30.0619 38.0533 28.0964C39.8759 26.1354 41.3117 23.8452 42.2846 21.3471C42.5635 20.7829 43.0443 20.3452 43.6308 20.1213C44.2172 19.8975 44.8662 19.9041 45.4481 20.1398C46.0299 20.3754 46.5018 20.8229 46.7694 21.3926C47.037 21.9624 47.0806 22.6125 46.8915 23.2131C46.8466 23.3163 46.7937 23.4159 46.7333 23.5109C45.1478 26.316 43.048 28.7947 40.5446 30.816C38.0586 32.7417 35.2352 34.1826 32.2205 35.0641C29.3019 35.9235 26.2632 36.299 23.2242 36.1758C20.2501 36.1465 17.3047 35.5887 14.5244 34.5281Z"/>
</mask>
<path d="M14.5244 34.5281C17.3547 35.1942 20.2805 35.3488 23.1649 34.9847C25.9952 34.6931 28.7597 33.9422 31.3505 32.7614C33.8578 31.6447 36.132 30.0619 38.0533 28.0964C39.8759 26.1354 41.3117 23.8452 42.2846 21.3471C42.5635 20.7829 43.0443 20.3452 43.6308 20.1213C44.2172 19.8975 44.8662 19.9041 45.4481 20.1398C46.0299 20.3754 46.5018 20.8229 46.7694 21.3926C47.037 21.9624 47.0806 22.6125 46.8915 23.2131C46.8466 23.3163 46.7937 23.4159 46.7333 23.5109C45.1478 26.316 43.048 28.7947 40.5446 30.816C38.0586 32.7417 35.2352 34.1826 32.2205 35.0641C29.3019 35.9235 26.2632 36.299 23.2242 36.1758C20.2501 36.1465 17.3047 35.5887 14.5244 34.5281Z" fill="white"/>
<path d="M14.5244 34.5281C17.3547 35.1942 20.2805 35.3488 23.1649 34.9847C25.9952 34.6931 28.7597 33.9422 31.3505 32.7614C33.8578 31.6447 36.132 30.0619 38.0533 28.0964C39.8759 26.1354 41.3117 23.8452 42.2846 21.3471C42.5635 20.7829 43.0443 20.3452 43.6308 20.1213C44.2172 19.8975 44.8662 19.9041 45.4481 20.1398C46.0299 20.3754 46.5018 20.8229 46.7694 21.3926C47.037 21.9624 47.0806 22.6125 46.8915 23.2131C46.8466 23.3163 46.7937 23.4159 46.7333 23.5109C45.1478 26.316 43.048 28.7947 40.5446 30.816C38.0586 32.7417 35.2352 34.1826 32.2205 35.0641C29.3019 35.9235 26.2632 36.299 23.2242 36.1758C20.2501 36.1465 17.3047 35.5887 14.5244 34.5281Z" stroke="white" stroke-width="2" mask="url(#path-6-outside-6)"/>
<path d="M111.986 60.7278L106.621 73.7451H103.965L119.678 35.9437H121.143L136.892 73.7451H134.072L128.706 60.7278H111.986ZM120.227 40.154C120.128 40.3523 120.054 40.5623 120.007 40.7792C119.605 42.0779 119.134 43.3544 118.597 44.6034L112.865 58.5767H127.772L122.04 44.6586C121.292 43.2194 120.685 41.7109 120.227 40.154Z" fill="white" stroke="white" stroke-width="1.3634" stroke-miterlimit="10"/>
<path d="M166.038 39.8534C163.653 38.8025 161.079 38.2519 158.474 38.2354C153.408 38.2354 150.874 40.1231 150.874 43.8983C150.885 45.5873 151.496 47.2171 152.596 48.4948C153.784 49.9595 155.186 51.2363 156.753 52.2822C158.401 53.3854 160.031 54.5069 161.661 55.6652C163.275 56.8049 164.687 58.2097 165.836 59.8205C166.951 61.3387 167.554 63.1744 167.558 65.0604C167.645 66.4334 167.4 67.8071 166.846 69.0651C166.291 70.323 165.442 71.4279 164.371 72.2861C161.787 74.0463 158.699 74.9054 155.581 74.7314C152.168 74.8248 148.817 73.8126 146.021 71.8448L147.267 70.0062C149.711 71.6263 152.579 72.4836 155.508 72.4699C157.94 72.6187 160.356 71.9737 162.393 70.6314C163.188 70.0248 163.823 69.2314 164.241 68.3209C164.66 67.4105 164.849 66.4108 164.792 65.4098C164.756 63.7589 164.147 62.1724 163.071 60.9236C161.862 59.4607 160.457 58.1736 158.896 57.0993C157.266 55.9594 155.636 54.7827 154.006 53.606C152.38 52.4363 150.967 50.9932 149.831 49.3405C148.712 47.8035 148.109 45.9491 148.109 44.0454C148.067 42.9151 148.292 41.7908 148.766 40.7649C149.241 39.7389 149.951 38.8405 150.838 38.1435C152.965 36.6078 155.546 35.837 158.163 35.9556C161.151 35.9122 164.11 36.5404 166.825 37.7942L166.038 39.8534Z" fill="white" stroke="white" stroke-width="1.3634" stroke-miterlimit="10"/>
<path d="M215.261 75.6454L212.582 63.42H184.346L181.649 75.6454L182.637 55.7946V35.9437L184.346 60.508H198.187H212.582L214.273 35.9437L215.261 75.6454Z" fill="white" stroke="white" stroke-width="2" stroke-miterlimit="10"/>
<path d="M228.684 73.701V36.3225C231.98 36.0835 234.745 35.9548 236.98 35.9548C240.128 35.8274 243.222 36.8023 245.733 38.7126C246.878 39.6483 247.786 40.842 248.384 42.1966C248.982 43.5512 249.254 45.0285 249.176 46.5082C249.161 48.7874 248.452 51.0074 247.143 52.8698C245.952 54.6765 244.451 56.2575 242.711 57.5398C243.932 59.3293 245.519 61.456 247.473 63.9197C249.304 66.3834 250.586 67.9278 251.135 68.5713C252.999 70.7277 255.586 72.1214 258.406 72.4875V74.1606C256.636 74.2005 254.877 73.8686 253.241 73.1861C251.819 72.5024 250.539 71.5541 249.469 70.3915C248.248 69.1658 245.263 65.2435 240.514 58.6245C237.108 58.6245 234.031 58.5142 231.248 58.312V73.7377L228.684 73.701ZM238.957 56.4918C239.942 56.3628 240.888 56.0237 241.731 55.4972C242.575 54.9708 243.296 54.2693 243.847 53.4397C245.561 51.4936 246.495 48.9775 246.466 46.3795C246.539 45.2224 246.333 44.0646 245.864 43.0049C245.395 41.9452 244.678 41.0151 243.774 40.2938C241.706 38.8175 239.202 38.0854 236.668 38.2162C235.093 38.2162 233.28 38.2162 231.174 38.4185V56.216C233.976 56.3998 236.558 56.4918 238.957 56.4918Z" fill="white" stroke="white" stroke-width="1.3634" stroke-miterlimit="10"/>
<path d="M276.208 60.7278L270.842 73.7451H268.187L283.863 35.9437H285.328L301.077 73.7451H298.257L292.891 60.7278H276.208ZM284.449 40.154C284.349 40.3523 284.276 40.5623 284.229 40.7792C283.826 42.0779 283.355 43.3544 282.819 44.6034L277.087 58.5767H291.994L286.262 44.6586C285.514 43.2194 284.907 41.7109 284.449 40.154Z" fill="white" stroke="white" stroke-width="1.3634" stroke-miterlimit="10"/>
<path d="M333.867 71.9249H332.457L321.56 45.3573C320.938 43.8864 320.425 42.581 320.04 41.4594L319.509 45.4492L315.224 73.8554H312.679L318.832 35.9988H320.278L331.907 63.8351C332.459 65.0276 332.93 66.2561 333.317 67.5122C333.789 66.2588 334.327 65.0313 334.929 63.8351L347.913 35.9437H349.323L355 73.8002H352.473L348.407 45.3021C348.174 43.9652 348.033 42.6136 347.986 41.2572C347.892 41.4151 347.812 41.5812 347.748 41.7536C347.638 42.0478 347.418 42.5442 347.125 43.2245L346.21 45.3389L333.867 71.9249Z" fill="white" stroke="white" stroke-width="1.3634" stroke-miterlimit="10"/>
</svg>
