<svg width="255" height="250" viewBox="0 0 255 250" fill="none" xmlns="http://www.w3.org/2000/svg">
<mask id="path-1-outside-1" maskUnits="userSpaceOnUse" x="81.7965" y="132.499" width="90" height="44" fill="black">
<rect fill="white" x="81.7965" y="132.499" width="90" height="44"/>
<path d="M167.5 133.654C168.21 139.743 168.76 145.833 169.212 151.883C169.47 154.947 169.664 157.973 169.858 161.037C170.052 164.101 170.246 167.087 170.342 170.151V173.409H167.37L157.162 174.069L146.986 174.457C140.17 174.767 133.386 174.689 126.569 174.844C119.753 175 113.001 174.844 106.185 174.495L96.0092 174.069L85.8008 173.448L82.7965 173.254V169.996C82.7965 166.932 83.1518 163.907 83.3133 160.882C83.4749 157.856 83.6687 154.792 83.9271 151.728C84.3794 145.677 84.9286 139.588 85.6716 133.499C86.4146 139.588 86.9638 145.677 87.4161 151.728C87.6745 154.792 87.836 157.817 88.0299 160.882C88.2237 163.946 87.933 163.328 88.0299 166.392L95.8799 165.885L106.056 165.497C112.872 165.225 119.656 165.264 126.44 165.148C133.224 165.032 140.041 165.148 146.857 165.497L157.033 165.885L164.883 166.392C164.883 163.328 164.721 163.907 164.883 160.882C165.044 157.856 165.238 154.792 165.497 151.728C166.207 145.833 166.757 139.743 167.5 133.654Z"/>
</mask>
<path d="M167.5 133.654C168.21 139.743 168.76 145.833 169.212 151.883C169.47 154.947 169.664 157.973 169.858 161.037C170.052 164.101 170.246 167.087 170.342 170.151V173.409H167.37L157.162 174.069L146.986 174.457C140.17 174.767 133.386 174.689 126.569 174.844C119.753 175 113.001 174.844 106.185 174.495L96.0092 174.069L85.8008 173.448L82.7965 173.254V169.996C82.7965 166.932 83.1518 163.907 83.3133 160.882C83.4749 157.856 83.6687 154.792 83.9271 151.728C84.3794 145.677 84.9286 139.588 85.6716 133.499C86.4146 139.588 86.9638 145.677 87.4161 151.728C87.6745 154.792 87.836 157.817 88.0299 160.882C88.2237 163.946 87.933 163.328 88.0299 166.392L95.8799 165.885L106.056 165.497C112.872 165.225 119.656 165.264 126.44 165.148C133.224 165.032 140.041 165.148 146.857 165.497L157.033 165.885L164.883 166.392C164.883 163.328 164.721 163.907 164.883 160.882C165.044 157.856 165.238 154.792 165.497 151.728C166.207 145.833 166.757 139.743 167.5 133.654Z" fill="#424475"/>
<path d="M167.5 133.654C168.21 139.743 168.76 145.833 169.212 151.883C169.47 154.947 169.664 157.973 169.858 161.037C170.052 164.101 170.246 167.087 170.342 170.151V173.409H167.37L157.162 174.069L146.986 174.457C140.17 174.767 133.386 174.689 126.569 174.844C119.753 175 113.001 174.844 106.185 174.495L96.0092 174.069L85.8008 173.448L82.7965 173.254V169.996C82.7965 166.932 83.1518 163.907 83.3133 160.882C83.4749 157.856 83.6687 154.792 83.9271 151.728C84.3794 145.677 84.9286 139.588 85.6716 133.499C86.4146 139.588 86.9638 145.677 87.4161 151.728C87.6745 154.792 87.836 157.817 88.0299 160.882C88.2237 163.946 87.933 163.328 88.0299 166.392L95.8799 165.885L106.056 165.497C112.872 165.225 119.656 165.264 126.44 165.148C133.224 165.032 140.041 165.148 146.857 165.497L157.033 165.885L164.883 166.392C164.883 163.328 164.721 163.907 164.883 160.882C165.044 157.856 165.238 154.792 165.497 151.728C166.207 145.833 166.757 139.743 167.5 133.654Z" stroke="#424475" stroke-width="2" mask="url(#path-1-outside-1)"/>
<mask id="path-2-outside-2" maskUnits="userSpaceOnUse" x="112.48" y="-0.0571289" width="32" height="31" fill="black">
<rect fill="white" x="112.48" y="-0.0571289" width="32" height="31"/>
<path d="M128.688 1.00018C131.921 1.01207 135.063 2.05739 137.651 3.98141C139.208 5.12863 140.515 6.57569 141.496 8.23616C142.477 9.89662 143.111 11.7364 143.36 13.6457C143.609 15.5549 143.468 17.4944 142.946 19.3483C142.423 21.2023 141.53 22.9326 140.319 24.4359C138.904 26.1431 137.129 27.521 135.119 28.4725C133.11 29.424 130.914 29.9259 128.688 29.9429C126.452 29.9465 124.244 29.4539 122.224 28.5011C120.205 27.5484 118.425 26.1594 117.015 24.4359C115.728 22.8282 114.801 20.9657 114.298 18.9732C113.795 16.9808 113.726 14.9046 114.097 12.8837C114.762 9.3121 116.775 6.12761 119.725 3.98141C122.3 2.033 125.451 0.984854 128.688 1.00018ZM128.688 1.00018C127.126 1.01921 125.591 1.40413 124.208 2.12362C122.824 2.84312 121.631 3.87687 120.726 5.14076C119.905 6.26782 119.351 7.56449 119.106 8.93392C118.86 10.3034 118.929 11.7102 119.308 13.0493C119.989 15.2467 121.477 17.1092 123.477 18.2664C125.061 19.2576 126.899 19.7751 128.771 19.757C130.637 19.7652 132.468 19.2639 134.066 18.3078C135.15 17.6506 136.085 16.7779 136.813 15.7446C137.541 14.7113 138.046 13.5398 138.297 12.3034C138.547 11.067 138.538 9.79244 138.269 8.55986C138 7.32728 137.477 6.16324 136.734 5.14076C135.82 3.86559 134.614 2.82489 133.215 2.10486C131.816 1.38482 130.264 1.00616 128.688 1.00018Z"/>
</mask>
<path d="M128.688 1.00018C131.921 1.01207 135.063 2.05739 137.651 3.98141C139.208 5.12863 140.515 6.57569 141.496 8.23616C142.477 9.89662 143.111 11.7364 143.36 13.6457C143.609 15.5549 143.468 17.4944 142.946 19.3483C142.423 21.2023 141.53 22.9326 140.319 24.4359C138.904 26.1431 137.129 27.521 135.119 28.4725C133.11 29.424 130.914 29.9259 128.688 29.9429C126.452 29.9465 124.244 29.4539 122.224 28.5011C120.205 27.5484 118.425 26.1594 117.015 24.4359C115.728 22.8282 114.801 20.9657 114.298 18.9732C113.795 16.9808 113.726 14.9046 114.097 12.8837C114.762 9.3121 116.775 6.12761 119.725 3.98141C122.3 2.033 125.451 0.984854 128.688 1.00018ZM128.688 1.00018C127.126 1.01921 125.591 1.40413 124.208 2.12362C122.824 2.84312 121.631 3.87687 120.726 5.14076C119.905 6.26782 119.351 7.56449 119.106 8.93392C118.86 10.3034 118.929 11.7102 119.308 13.0493C119.989 15.2467 121.477 17.1092 123.477 18.2664C125.061 19.2576 126.899 19.7751 128.771 19.757C130.637 19.7652 132.468 19.2639 134.066 18.3078C135.15 17.6506 136.085 16.7779 136.813 15.7446C137.541 14.7113 138.046 13.5398 138.297 12.3034C138.547 11.067 138.538 9.79244 138.269 8.55986C138 7.32728 137.477 6.16324 136.734 5.14076C135.82 3.86559 134.614 2.82489 133.215 2.10486C131.816 1.38482 130.264 1.00616 128.688 1.00018Z" fill="#424475"/>
<path d="M128.688 1.00018C131.921 1.01207 135.063 2.05739 137.651 3.98141C139.208 5.12863 140.515 6.57569 141.496 8.23616C142.477 9.89662 143.111 11.7364 143.36 13.6457C143.609 15.5549 143.468 17.4944 142.946 19.3483C142.423 21.2023 141.53 22.9326 140.319 24.4359C138.904 26.1431 137.129 27.521 135.119 28.4725C133.11 29.424 130.914 29.9259 128.688 29.9429C126.452 29.9465 124.244 29.4539 122.224 28.5011C120.205 27.5484 118.425 26.1594 117.015 24.4359C115.728 22.8282 114.801 20.9657 114.298 18.9732C113.795 16.9808 113.726 14.9046 114.097 12.8837C114.762 9.3121 116.775 6.12761 119.725 3.98141C122.3 2.033 125.451 0.984854 128.688 1.00018ZM128.688 1.00018C127.126 1.01921 125.591 1.40413 124.208 2.12362C122.824 2.84312 121.631 3.87687 120.726 5.14076C119.905 6.26782 119.351 7.56449 119.106 8.93392C118.86 10.3034 118.929 11.7102 119.308 13.0493C119.989 15.2467 121.477 17.1092 123.477 18.2664C125.061 19.2576 126.899 19.7751 128.771 19.757C130.637 19.7652 132.468 19.2639 134.066 18.3078C135.15 17.6506 136.085 16.7779 136.813 15.7446C137.541 14.7113 138.046 13.5398 138.297 12.3034C138.547 11.067 138.538 9.79244 138.269 8.55986C138 7.32728 137.477 6.16324 136.734 5.14076C135.82 3.86559 134.614 2.82489 133.215 2.10486C131.816 1.38482 130.264 1.00616 128.688 1.00018Z" stroke="#424475" mask="url(#path-2-outside-2)"/>
<mask id="path-3-outside-3" maskUnits="userSpaceOnUse" x="122.239" y="80.8834" width="99" height="37" fill="black">
<rect fill="white" x="122.239" y="80.8834" width="99" height="37"/>
<path d="M220.369 112.506C212.201 114.671 203.807 115.88 195.356 116.108C186.86 116.436 178.352 115.895 169.968 114.493C161.394 113.078 153.06 110.486 145.205 106.792C137.132 102.833 130.021 97.1825 124.36 90.2295C123.935 89.698 123.621 89.0881 123.435 88.4351C123.249 87.7821 123.195 87.0989 123.276 86.4251C123.358 85.7512 123.573 85.1002 123.909 84.5094C124.245 83.9187 124.696 83.4 125.236 82.9834C126.328 82.1395 127.711 81.7574 129.084 81.9202C130.458 82.083 131.712 82.7775 132.573 83.853L132.865 84.3084C137.026 90.7663 142.579 96.2254 149.123 100.291C156.014 104.437 163.449 107.614 171.218 109.732C179.138 111.948 187.27 113.336 195.481 113.872C203.802 114.395 212.157 113.936 220.369 112.506Z"/>
</mask>
<path d="M220.369 112.506C212.201 114.671 203.807 115.88 195.356 116.108C186.86 116.436 178.352 115.895 169.968 114.493C161.394 113.078 153.06 110.486 145.205 106.792C137.132 102.833 130.021 97.1825 124.36 90.2295C123.935 89.698 123.621 89.0881 123.435 88.4351C123.249 87.7821 123.195 87.0989 123.276 86.4251C123.358 85.7512 123.573 85.1002 123.909 84.5094C124.245 83.9187 124.696 83.4 125.236 82.9834C126.328 82.1395 127.711 81.7574 129.084 81.9202C130.458 82.083 131.712 82.7775 132.573 83.853L132.865 84.3084C137.026 90.7663 142.579 96.2254 149.123 100.291C156.014 104.437 163.449 107.614 171.218 109.732C179.138 111.948 187.27 113.336 195.481 113.872C203.802 114.395 212.157 113.936 220.369 112.506Z" fill="#424475"/>
<path d="M220.369 112.506C212.201 114.671 203.807 115.88 195.356 116.108C186.86 116.436 178.352 115.895 169.968 114.493C161.394 113.078 153.06 110.486 145.205 106.792C137.132 102.833 130.021 97.1825 124.36 90.2295C123.935 89.698 123.621 89.0881 123.435 88.4351C123.249 87.7821 123.195 87.0989 123.276 86.4251C123.358 85.7512 123.573 85.1002 123.909 84.5094C124.245 83.9187 124.696 83.4 125.236 82.9834C126.328 82.1395 127.711 81.7574 129.084 81.9202C130.458 82.083 131.712 82.7775 132.573 83.853L132.865 84.3084C137.026 90.7663 142.579 96.2254 149.123 100.291C156.014 104.437 163.449 107.614 171.218 109.732C179.138 111.948 187.27 113.336 195.481 113.872C203.802 114.395 212.157 113.936 220.369 112.506Z" stroke="#424475" stroke-width="2" mask="url(#path-3-outside-3)"/>
<mask id="path-4-outside-4" maskUnits="userSpaceOnUse" x="35.939" y="80.843" width="100" height="36" fill="black">
<rect fill="white" x="35.939" y="80.843" width="100" height="36"/>
<path d="M36.939 112.506C45.2078 113.818 53.6042 114.152 61.9521 113.499C70.1629 112.963 78.2946 111.575 86.2148 109.359C93.9836 107.241 101.419 104.064 108.31 99.9184C114.833 95.8403 120.37 90.3831 124.527 83.9358C125.315 82.8883 126.471 82.1732 127.766 81.9323C129.06 81.6913 130.398 81.9421 131.515 82.6348C132.632 83.3276 133.447 84.4118 133.797 85.6727C134.147 86.9336 134.008 88.2791 133.406 89.4427L133.073 89.8568C127.425 96.8222 120.31 102.475 112.228 106.419C104.373 110.113 96.0392 112.705 87.4655 114.121C79.067 115.524 70.5454 116.065 62.0354 115.735C53.5719 115.633 45.1494 114.549 36.939 112.506Z"/>
</mask>
<path d="M36.939 112.506C45.2078 113.818 53.6042 114.152 61.9521 113.499C70.1629 112.963 78.2946 111.575 86.2148 109.359C93.9836 107.241 101.419 104.064 108.31 99.9184C114.833 95.8403 120.37 90.3831 124.527 83.9358C125.315 82.8883 126.471 82.1732 127.766 81.9323C129.06 81.6913 130.398 81.9421 131.515 82.6348C132.632 83.3276 133.447 84.4118 133.797 85.6727C134.147 86.9336 134.008 88.2791 133.406 89.4427L133.073 89.8568C127.425 96.8222 120.31 102.475 112.228 106.419C104.373 110.113 96.0392 112.705 87.4655 114.121C79.067 115.524 70.5454 116.065 62.0354 115.735C53.5719 115.633 45.1494 114.549 36.939 112.506Z" fill="#424475"/>
<path d="M36.939 112.506C45.2078 113.818 53.6042 114.152 61.9521 113.499C70.1629 112.963 78.2946 111.575 86.2148 109.359C93.9836 107.241 101.419 104.064 108.31 99.9184C114.833 95.8403 120.37 90.3831 124.527 83.9358C125.315 82.8883 126.471 82.1732 127.766 81.9323C129.06 81.6913 130.398 81.9421 131.515 82.6348C132.632 83.3276 133.447 84.4118 133.797 85.6727C134.147 86.9336 134.008 88.2791 133.406 89.4427L133.073 89.8568C127.425 96.8222 120.31 102.475 112.228 106.419C104.373 110.113 96.0392 112.705 87.4655 114.121C79.067 115.524 70.5454 116.065 62.0354 115.735C53.5719 115.633 45.1494 114.549 36.939 112.506Z" stroke="#424475" stroke-width="2" mask="url(#path-4-outside-4)"/>
<mask id="path-5-outside-5" maskUnits="userSpaceOnUse" x="122.259" y="39.2481" width="70" height="37" fill="black">
<rect fill="white" x="122.259" y="39.2481" width="70" height="37"/>
<path d="M191.895 70.9345C186.051 73.1668 179.855 74.3581 173.594 74.454C167.186 74.7132 160.779 73.93 154.626 72.1353C148.257 70.2968 142.29 67.2915 137.033 63.2744C131.763 59.0497 127.337 53.8813 123.985 48.0371C123.634 47.4513 123.404 46.8021 123.309 46.1272C123.213 45.4524 123.254 44.7654 123.429 44.1064C123.603 43.4474 123.908 42.8294 124.326 42.2887C124.743 41.7479 125.265 41.2951 125.861 40.9567C127.061 40.2625 128.489 40.0688 129.833 40.418C131.177 40.7672 132.327 41.6308 133.031 42.8199L133.323 43.4824C135.369 48.7861 138.468 53.6269 142.435 57.717C146.403 61.8071 151.158 65.0629 156.418 67.2908C161.879 69.7586 167.709 71.325 173.677 71.9282C179.761 72.6742 185.93 72.3377 191.895 70.9345Z"/>
</mask>
<path d="M191.895 70.9345C186.051 73.1668 179.855 74.3581 173.594 74.454C167.186 74.7132 160.779 73.93 154.626 72.1353C148.257 70.2968 142.29 67.2915 137.033 63.2744C131.763 59.0497 127.337 53.8813 123.985 48.0371C123.634 47.4513 123.404 46.8021 123.309 46.1272C123.213 45.4524 123.254 44.7654 123.429 44.1064C123.603 43.4474 123.908 42.8294 124.326 42.2887C124.743 41.7479 125.265 41.2951 125.861 40.9567C127.061 40.2625 128.489 40.0688 129.833 40.418C131.177 40.7672 132.327 41.6308 133.031 42.8199L133.323 43.4824C135.369 48.7861 138.468 53.6269 142.435 57.717C146.403 61.8071 151.158 65.0629 156.418 67.2908C161.879 69.7586 167.709 71.325 173.677 71.9282C179.761 72.6742 185.93 72.3377 191.895 70.9345Z" fill="#424475"/>
<path d="M191.895 70.9345C186.051 73.1668 179.855 74.3581 173.594 74.454C167.186 74.7132 160.779 73.93 154.626 72.1353C148.257 70.2968 142.29 67.2915 137.033 63.2744C131.763 59.0497 127.337 53.8813 123.985 48.0371C123.634 47.4513 123.404 46.8021 123.309 46.1272C123.213 45.4524 123.254 44.7654 123.429 44.1064C123.603 43.4474 123.908 42.8294 124.326 42.2887C124.743 41.7479 125.265 41.2951 125.861 40.9567C127.061 40.2625 128.489 40.0688 129.833 40.418C131.177 40.7672 132.327 41.6308 133.031 42.8199L133.323 43.4824C135.369 48.7861 138.468 53.6269 142.435 57.717C146.403 61.8071 151.158 65.0629 156.418 67.2908C161.879 69.7586 167.709 71.325 173.677 71.9282C179.761 72.6742 185.93 72.3377 191.895 70.9345Z" stroke="#424475" stroke-width="2" stroke-linejoin="round" mask="url(#path-5-outside-5)"/>
<mask id="path-6-outside-6" maskUnits="userSpaceOnUse" x="64.4545" y="39.5437" width="71" height="36" fill="black">
<rect fill="white" x="64.4545" y="39.5437" width="71" height="36"/>
<path d="M65.4545 70.9344C71.422 72.3238 77.591 72.6463 83.6723 71.8867C89.6401 71.2785 95.4689 69.7123 100.931 67.2493C106.218 64.92 111.013 61.6185 115.064 57.5189C118.907 53.4284 121.934 48.6514 123.985 43.441C124.573 42.2641 125.587 41.351 126.824 40.8841C128.06 40.4173 129.428 40.431 130.655 40.9226C131.882 41.4141 132.877 42.3474 133.441 43.5358C134.005 44.7242 134.097 46.0803 133.699 47.3331C133.604 47.5484 133.492 47.7561 133.365 47.9542C130.022 53.8053 125.595 58.9753 120.317 63.1915C115.075 67.2082 109.122 70.2137 102.766 72.0524C96.612 73.8449 90.2051 74.6281 83.7974 74.3711C77.5268 74.3101 71.3166 73.1466 65.4545 70.9344Z"/>
</mask>
<path d="M65.4545 70.9344C71.422 72.3238 77.591 72.6463 83.6723 71.8867C89.6401 71.2785 95.4689 69.7123 100.931 67.2493C106.218 64.92 111.013 61.6185 115.064 57.5189C118.907 53.4284 121.934 48.6514 123.985 43.441C124.573 42.2641 125.587 41.351 126.824 40.8841C128.06 40.4173 129.428 40.431 130.655 40.9226C131.882 41.4141 132.877 42.3474 133.441 43.5358C134.005 44.7242 134.097 46.0803 133.699 47.3331C133.604 47.5484 133.492 47.7561 133.365 47.9542C130.022 53.8053 125.595 58.9753 120.317 63.1915C115.075 67.2082 109.122 70.2137 102.766 72.0524C96.612 73.8449 90.2051 74.6281 83.7974 74.3711C77.5268 74.3101 71.3166 73.1466 65.4545 70.9344Z" fill="#424475"/>
<path d="M65.4545 70.9344C71.422 72.3238 77.591 72.6463 83.6723 71.8867C89.6401 71.2785 95.4689 69.7123 100.931 67.2493C106.218 64.92 111.013 61.6185 115.064 57.5189C118.907 53.4284 121.934 48.6514 123.985 43.441C124.573 42.2641 125.587 41.351 126.824 40.8841C128.06 40.4173 129.428 40.431 130.655 40.9226C131.882 41.4141 132.877 42.3474 133.441 43.5358C134.005 44.7242 134.097 46.0803 133.699 47.3331C133.604 47.5484 133.492 47.7561 133.365 47.9542C130.022 53.8053 125.595 58.9753 120.317 63.1915C115.075 67.2082 109.122 70.2137 102.766 72.0524C96.612 73.8449 90.2051 74.6281 83.7974 74.3711C77.5268 74.3101 71.3166 73.1466 65.4545 70.9344Z" stroke="#424475" stroke-width="2" mask="url(#path-6-outside-6)"/>
<path d="M10.0519 234.164L4.6656 247.11H2L17.773 209.515H19.2437L35.0534 247.11H32.2223L26.836 234.164H10.0519ZM18.3245 213.703C18.2249 213.9 18.1507 214.109 18.1039 214.324C17.6995 215.616 17.227 216.886 16.6884 218.128L10.9343 232.025H25.8984L20.1444 218.183C19.3937 216.751 18.7842 215.251 18.3245 213.703Z" fill="#424475" stroke="#424475" stroke-width="1.3634" stroke-miterlimit="10"/>
<path d="M64.311 213.404C61.9168 212.359 59.3332 211.811 56.7187 211.795C51.6326 211.795 49.0895 213.672 49.0895 217.426C49.1003 219.106 49.713 220.727 50.8176 221.998C52.0107 223.455 53.4175 224.724 54.9906 225.765C56.6451 226.862 58.2813 227.977 59.9174 229.129C61.538 230.263 62.955 231.66 64.1088 233.262C65.2277 234.772 65.833 236.597 65.8368 238.473C65.9243 239.838 65.6791 241.205 65.1223 242.456C64.5654 243.707 63.7132 244.806 62.6381 245.659C60.0442 247.41 56.9439 248.264 53.8141 248.091C50.3884 248.184 47.0238 247.177 44.218 245.22L45.468 243.392C47.9218 245.003 50.8003 245.855 53.7405 245.842C56.1826 245.99 58.6072 245.348 60.6527 244.013C61.451 243.41 62.088 242.621 62.5079 241.716C62.9278 240.81 63.1177 239.816 63.0609 238.82C63.0243 237.178 62.4132 235.601 61.3329 234.359C60.1198 232.904 58.7091 231.624 57.1415 230.555C55.5054 229.422 53.8692 228.251 52.2331 227.081C50.6007 225.918 49.1827 224.483 48.0417 222.839C46.9186 221.31 46.3134 219.466 46.3137 217.573C46.2711 216.449 46.4972 215.331 46.9733 214.31C47.4495 213.29 48.1621 212.396 49.0528 211.703C51.1881 210.176 53.7787 209.409 56.4061 209.527C59.4054 209.484 62.3764 210.109 65.1015 211.356L64.311 213.404Z" fill="#424475" stroke="#424475" stroke-width="1.3634" stroke-miterlimit="10"/>
<path d="M113.724 249L111.034 236.841H82.69L79.9822 249L80.9747 229.258V209.515L82.69 233.945H96.5837H111.034L112.732 209.515L113.724 249Z" fill="#424475" stroke="#424475" stroke-width="2" stroke-miterlimit="10"/>
<path d="M127.198 247.066V209.892C130.507 209.654 133.283 209.526 135.526 209.526C138.686 209.4 141.792 210.369 144.313 212.269C145.462 213.2 146.374 214.387 146.974 215.734C147.575 217.081 147.847 218.55 147.769 220.022C147.754 222.289 147.042 224.497 145.729 226.349C144.532 228.146 143.026 229.718 141.28 230.993C142.505 232.773 144.099 234.888 146.059 237.338C147.898 239.789 149.185 241.325 149.736 241.965C151.606 244.109 154.204 245.495 157.034 245.859V247.523C155.257 247.563 153.492 247.233 151.85 246.554C150.423 245.874 149.138 244.931 148.063 243.775C146.838 242.556 143.841 238.655 139.074 232.072C135.654 232.072 132.566 231.962 129.772 231.761V247.103L127.198 247.066ZM137.511 229.951C138.5 229.823 139.449 229.486 140.296 228.962C141.142 228.438 141.866 227.741 142.42 226.916C144.141 224.98 145.077 222.478 145.048 219.894C145.122 218.743 144.915 217.592 144.444 216.538C143.974 215.484 143.254 214.559 142.346 213.842C140.27 212.373 137.757 211.645 135.213 211.775C133.632 211.775 131.812 211.775 129.698 211.977V229.677C132.511 229.86 135.103 229.951 137.511 229.951Z" fill="#424475" stroke="#424475" stroke-width="1.3634" stroke-miterlimit="10"/>
<path d="M174.905 234.164L169.519 247.11H166.853L182.589 209.515H184.06L199.87 247.11H197.039L191.652 234.164H174.905ZM183.178 213.703C183.078 213.9 183.004 214.109 182.957 214.324C182.553 215.616 182.08 216.886 181.541 218.128L175.787 232.025H190.752L184.998 218.183C184.247 216.751 183.637 215.251 183.178 213.703Z" fill="#424475" stroke="#424475" stroke-width="1.3634" stroke-miterlimit="10"/>
<path d="M232.786 245.3H231.37L220.432 218.877C219.807 217.415 219.292 216.116 218.906 215.001L218.373 218.969L214.071 247.22H211.516L217.693 209.57H219.145L230.819 237.254C231.372 238.44 231.845 239.662 232.234 240.911C232.708 239.665 233.248 238.444 233.852 237.254L246.886 209.515H248.301L254 247.165H251.463L247.382 218.823C247.148 217.493 247.007 216.149 246.959 214.8C246.865 214.957 246.785 215.122 246.72 215.294C246.61 215.586 246.389 216.08 246.095 216.756L245.176 218.859L232.786 245.3Z" fill="#424475" stroke="#424475" stroke-width="1.3634" stroke-miterlimit="10"/>
</svg>
