<svg xmlns="http://www.w3.org/2000/svg" viewBox="0 0 107.76 107.76"><defs><style>.cls-1{fill:#424475;}</style></defs><g id="Capa_2" data-name="Capa 2"><g id="Capa_1-2" data-name="Capa 1"><path class="cls-1" d="M53.88,0a53.88,53.88,0,1,0,53.88,53.88A53.88,53.88,0,0,0,53.88,0Zm0,6.76a8.57,8.57,0,1,1-8.57,8.57A8.58,8.58,0,0,1,53.89,6.76ZM22.68,40.69l2.27.55a20.87,20.87,0,0,0,7.47.39,22.43,22.43,0,0,0,7.21-2,18.23,18.23,0,0,0,5.72-4,17.91,17.91,0,0,0,3.14-4.81,2.5,2.5,0,0,1,0-.29,5.55,5.55,0,0,1,.92-1.93,5.34,5.34,0,0,1,1.61-1.42,5.38,5.38,0,0,1,7.16,1.55l.19.26a1.77,1.77,0,0,0,.12.17l.07.17a4.36,4.36,0,0,1,.24.41,5.47,5.47,0,0,1,.23.64,17.15,17.15,0,0,0,3.45,5.36,16.76,16.76,0,0,0,5.57,3.9,22.63,22.63,0,0,0,7.21,2,20.91,20.91,0,0,0,7.53-.41l2.27-.55,1.7,5.41L84.63,47A27.58,27.58,0,0,1,75,48.84c-.4,0-.81,0-1.21,0a30,30,0,0,1-8.59-1.27A27.55,27.55,0,0,1,56,42.84c-.73-.59-1.43-1.23-2.09-1.88a26.41,26.41,0,0,1-2,1.8,27.78,27.78,0,0,1-9.28,4.81A30.31,30.31,0,0,1,34,48.82c-.41,0-.82,0-1.24,0A27.34,27.34,0,0,1,23.18,47L21,46.11ZM72.14,96.28l-4.69.31-4.85.19c-2,.1-4.09.12-6.08.14h-.2c-1.11,0-2.23,0-3.34,0-.85,0-1.7,0-2.58,0-2.26,0-4.63-.07-7.18-.2h0l-4.82-.21-9-.58V91.65c0-1.07.07-2.1.15-3.09,0-.53.07-1,.09-1.44.09-1.67.19-3.14.3-4.48.24-3.3.51-6.2.83-8.85l.26-2.2h5.43l.27,2.2c.31,2.66.58,5.56.83,8.88.09,1.09.15,2.19.22,3.3l0,.74.68,0,4.69-.19c2.16-.09,4.35-.11,6.46-.13H50l2.84,0c3.22,0,6.51,0,9.78.17l5.32.23c.08-1.55.17-2.85.27-4.08v-.1c.16-1.33.3-2.67.44-4l0-.22c.15-1.47.31-3,.48-4.42l.27-2.21h5.44l.25,2.21c.31,2.73.58,5.62.81,8.86.13,1.47.22,2.94.31,4.43v.2c.09,1.42.18,2.82.22,4.26v4.65Zm13-27.65c-.77,0-1.55.05-2.33.05a60.79,60.79,0,0,1-10.14-.86,46.78,46.78,0,0,1-12.41-3.95,32.34,32.34,0,0,1-6.39-4.23,31.82,31.82,0,0,1-6.35,4.21l-.09,0a46.76,46.76,0,0,1-12.36,3.93,60.67,60.67,0,0,1-10.16.86c-.8,0-1.59,0-2.38-.05A52.81,52.81,0,0,1,10.15,67l-2.43-.62.78-3.18.4-2.47,2.47.4a45.88,45.88,0,0,0,10.92.46h.13a52.38,52.38,0,0,0,10.69-1.86l.08,0a37.49,37.49,0,0,0,9.58-4.19,21.78,21.78,0,0,0,6.11-5.92,5.47,5.47,0,0,1,2-2.35,5.48,5.48,0,0,1,7.95,2.35A22.14,22.14,0,0,0,65,55.52a37.48,37.48,0,0,0,9.55,4.17h0a52.42,52.42,0,0,0,10.75,1.88h.13a45.88,45.88,0,0,0,10.92-.46l2.47-.4L99.42,64l.61,2.42L97.61,67A52.91,52.91,0,0,1,85.15,68.63Z"/></g></g></svg>